<?xml version="1.0" encoding="utf-8"?>
<!-- Generator: Adobe Illustrator 22.1.0, SVG Export Plug-In . SVG Version: 6.00 Build 0)  -->
<svg version="1.1" id="black" xmlns="http://www.w3.org/2000/svg" xmlns:xlink="http://www.w3.org/1999/xlink" x="0px" y="0px"
	 viewBox="0 0 291 75.9" style="enable-background:new 0 0 291 75.9;" xml:space="preserve">
<style type="text/css">
	.st0{fill:none;}
	.st1{fill:#EC6608;}
	.st2{fill:#FFFFFF;}
</style>
<g>
	<g>
		<path class="st2" d="M25.9,43.9h6.9v12.6c-3.8-1.6-8.5-4.5-11-8.1c-0.8-1.2-1.8-3.2-1.8-7.6C20.8,42.7,23.2,43.9,25.9,43.9z
			 M27.7,40.6h5.9c1.6,0,2.4-0.8,2.4-0.8v16.6c3.7-1.6,8.2-4.4,10.7-8c0.8-1.2,1.8-3.2,1.8-7.6V18.4H36c0,3.1,0,12.9,0,13.1
			c0,0.8-0.5,1.3-1.3,1.3h-2.3c-0.8,0-1.3-0.5-1.3-1.3V18.4H19.9v14.4C19.9,37.4,20.4,40.6,27.7,40.6z M16.6,15.1v25.6
			c0,4.2,0.7,7.1,2.4,9.5c3.8,5.4,11,9,15.2,10.3c4.2-1.2,11.4-4.8,15.2-10.3c1.7-2.4,2.4-5.3,2.4-9.5V15.1H16.6z M55,11.9v28.8
			c0,4.9-0.9,8.4-3,11.4c-4.5,6.4-12.9,10.5-17.8,11.8c-5-1.2-13.3-5.3-17.8-11.8c-2.1-2.9-3-6.5-3-11.4V11.9H55z"/>
	</g>
	<g>
		<polygon class="st2" points="104.9,48.1 89.2,48.1 89.2,23.6 104.9,23.6 104.9,27.6 93.5,27.6 93.5,33.7 103.5,33.7 103.5,37.7 
			93.5,37.7 93.5,44 104.9,44 		"/>
		<polygon class="st2" points="182.4,48.1 182.4,23.6 178.3,23.6 178.1,24.3 168.1,40 168.1,23.6 163.8,23.6 163.8,48.1 167.9,48.1 
			168.1,47.4 178.1,31.6 178.1,48.1 		"/>
		<polygon class="st2" points="227,37.7 216.9,37.7 216.9,48.1 212.6,48.1 212.6,23.6 216.9,23.6 216.9,33.7 227,33.7 227,23.6 
			231.3,23.6 231.3,48.1 227,48.1 		"/>
		<polygon class="st2" points="153.7,27.6 143.7,27.6 143.7,48.1 139.4,48.1 139.4,23.6 158,23.6 158,48.1 153.7,48.1 		"/>
		<polygon class="st2" points="129.3,33.9 123.6,45.2 120.7,45.2 115,33.9 115,48.1 110.7,48.1 110.7,23.6 114.9,23.6 115,24.3 
			121.8,38 122.4,38 129.3,24.4 129.5,23.6 133.7,23.6 133.7,48.1 129.3,48.1 		"/>
		<polygon class="st2" points="268.6,48.1 264.3,48.1 264.3,27.6 257.1,27.6 257.1,23.6 275.7,23.6 275.7,27.6 268.6,27.6 		"/>
		<path class="st2" d="M79.1,23.6v10.1c-0.6,0.3-2.6,1.7-5.6,1.7c-2.2,0-4.4-0.8-4.4-4.6v-7.2h-4.3v7.2c0,5.1,3.2,8.6,8.6,8.6
			c2.1,0,4.3-0.7,5.7-1.4v10.1h4.3V23.6H79.1z"/>
		<path class="st2" d="M234.9,48.1h4.7l2.2-5.8h8.9l2.2,5.8h4.7l-9.3-24.5h-4.1L234.9,48.1z M243.2,38.3l3-8.7h0.1l3,8.7H243.2z"/>
		<path class="st2" d="M205.9,27.4c-1.8-2.8-5-4.4-8.4-4.4c-3.5,0-6.7,1.6-8.4,4.4c-0.9,1.4-1.4,3.1-1.4,5.7v5.3
			c0,2.6,0.5,4.3,1.4,5.7c1.8,2.8,5,4.4,8.4,4.4c3.5,0,6.7-1.6,8.4-4.4c0.9-1.4,1.4-3.1,1.4-5.7v-5.3
			C207.4,30.6,206.9,28.9,205.9,27.4z M203.1,38.8c0,1.5-0.3,2.6-0.9,3.4c-1,1.4-2.8,2.3-4.7,2.3c-1.8,0-3.6-0.9-4.7-2.3
			c-0.6-0.8-0.9-1.9-0.9-3.4v-6c0-1.5,0.3-2.6,0.9-3.4c1-1.4,2.8-2.3,4.7-2.3c1.8,0,3.6,0.9,4.7,2.3c0.6,0.8,0.9,1.9,0.9,3.4V38.8z"
			/>
	</g>
</g>
</svg>
