<?xml version="1.0" encoding="utf-8"?>
<!-- Generator: Adobe Illustrator 22.1.0, SVG Export Plug-In . SVG Version: 6.00 Build 0)  -->
<svg version="1.1" id="Слой_1" xmlns="http://www.w3.org/2000/svg" xmlns:xlink="http://www.w3.org/1999/xlink" x="0px" y="0px"
	 viewBox="0 0 81.4 81" style="enable-background:new 0 0 81.4 81;" xml:space="preserve">
<style type="text/css">
	.st0{fill:#FFFFFF;}
</style>
<g>
	<path class="st0" d="M40.7,2C19.3,2,2,19.3,2,40.7s17.3,38.7,38.7,38.7c21.4,0,38.7-17.3,38.7-38.7S62.1,2,40.7,2z M52.5,56.6
		c0,0-0.9,2.2-3.3,1.2l-9.1-6.9l-5.8,5.3c0,0-0.5,0.3-1,0.1l1.1-9.7l5.6,4.3l-5.6-4.4l0-0.2c0,0,16.3-14.6,17-15.3
		c0.7-0.6,0.4-0.8,0.4-0.8c0-0.8-1.2,0-1.2,0L29.1,44l-9-3c0,0-1.4-0.5-1.5-1.6c-0.1-1.1,1.6-1.6,1.6-1.6l35.8-14
		c0,0,2.9-1.3,2.9,0.8L52.5,56.6z"/>
	<polygon class="st0" points="40.1,50.9 40.1,50.9 40.1,50.9 	"/>
</g>
</svg>
