<?xml version="1.0" encoding="utf-8"?>
<!-- Generator: Adobe Illustrator 22.1.0, SVG Export Plug-In . SVG Version: 6.00 Build 0)  -->
<svg version="1.1" id="Слой_1" xmlns="http://www.w3.org/2000/svg" xmlns:xlink="http://www.w3.org/1999/xlink" x="0px" y="0px"
	 viewBox="0 0 81.4 81.3" style="enable-background:new 0 0 81.4 81.3;" xml:space="preserve">
<style type="text/css">
	.st0{fill:#FFFFFF;}
</style>
<path class="st0" d="M40.7,2C19.3,2,2,19.3,2,40.7s17.3,38.7,38.7,38.7s38.7-17.3,38.7-38.7S62.1,2,40.7,2z M62.2,56.3l-6.9,0.1
	c0,0-1.5,0.3-3.4-1c-2.6-1.8-5-6.4-6.9-5.8c-1.9,0.6-1.9,4.8-1.9,4.8s0,0.9-0.4,1.4c-0.5,0.5-1.4,0.6-1.4,0.6h-3.1
	c0,0-6.8,0.4-12.8-5.9c-6.6-6.8-12.4-20.4-12.4-20.4s-0.3-0.9,0-1.3c0.4-0.5,1.5-0.5,1.5-0.5l7.4,0c0,0,0.7,0.1,1.2,0.5
	c0.4,0.3,0.6,0.9,0.6,0.9s1.2,3,2.8,5.8c3.1,5.3,4.5,6.5,5.6,5.9c1.5-0.8,1.1-7.6,1.1-7.6s0-2.4-0.8-3.5c-0.6-0.8-1.8-1.1-2.3-1.2
	c-0.4-0.1,0.3-1,1.2-1.5c1.3-0.7,3.7-0.7,6.5-0.7c2.2,0,2.8,0.2,3.6,0.4c2.6,0.6,1.7,3,1.7,8.7c0,1.8-0.3,4.4,1,5.2
	c0.6,0.4,2,0.1,5.4-5.8c1.6-2.8,2.9-6.1,2.9-6.1s0.3-0.6,0.7-0.8c0.4-0.3,1-0.2,1-0.2l7.8,0c0,0,2.3-0.3,2.7,0.8
	c0.4,1.1-0.9,3.7-4.1,7.9c-5.2,7-5.8,6.3-1.5,10.3c4.1,3.8,5,5.7,5.1,5.9C65.8,56.1,62.2,56.3,62.2,56.3z"/>
</svg>
