<?xml version="1.0" encoding="utf-8"?>
<!-- Generator: Adobe Illustrator 22.1.0, SVG Export Plug-In . SVG Version: 6.00 Build 0)  -->
<svg version="1.1" id="Слой_1" xmlns="http://www.w3.org/2000/svg" xmlns:xlink="http://www.w3.org/1999/xlink" x="0px" y="0px"
	 viewBox="0 0 81.4 81.7" style="enable-background:new 0 0 81.4 81.7;" xml:space="preserve">
<style type="text/css">
	.st0{fill:#FFFFFF;}
</style>
<path class="st0" d="M40.7,2C19.3,2,2,19.3,2,40.7c0,21.4,17.3,38.7,38.7,38.7s38.7-17.3,38.7-38.7C79.4,19.3,62.1,2,40.7,2z
	 M57.1,31.8c0,0.3,0,0.8,0,1.1c0,12.1-8.5,26-24.2,26c-4.8,0-9.4-1.6-13.1-4.2c0.8,0.2,1.5,0.2,2.1,0.2c3.9,0,7.6-1.5,10.5-3.9
	c-3.7,0-6.8-2.6-7.9-6.3c0.5,0.2,1.1,0.2,1.6,0.2c0.8,0,1.6-0.2,2.3-0.3c-3.9-1-6.8-4.7-6.8-9v-0.2c1.1,0.6,2.4,1.1,3.9,1.1
	c-2.3-1.6-3.7-4.4-3.7-7.6c0-1.8,0.3-3.4,1.1-4.7c4.2,5.5,10.5,9.2,17.6,9.5c-0.2-0.6-0.2-1.5-0.2-2.1c0-5.2,3.9-9.2,8.5-9.2
	c2.4,0,4.5,1.1,6.1,2.9c2.1-0.5,3.9-1.3,5.5-2.3c-0.6,2.1-1.9,3.9-3.7,5c1.6-0.2,3.4-0.6,4.8-1.5C60.5,28.6,59,30.2,57.1,31.8z"/>
</svg>
