<?xml version="1.0" encoding="utf-8"?>
<!-- Generator: Adobe Illustrator 22.1.0, SVG Export Plug-In . SVG Version: 6.00 Build 0)  -->
<svg version="1.1" id="Слой_1" xmlns="http://www.w3.org/2000/svg" xmlns:xlink="http://www.w3.org/1999/xlink" x="0px" y="0px"
	 viewBox="0 0 81.4 81.4" style="enable-background:new 0 0 81.4 81.4;" xml:space="preserve">
<style type="text/css">
	.st0{fill:#FFFFFF;}
</style>
<g>
	<path class="st0" d="M40.8,33.9c3.7,0,6.7-3,6.7-6.8c0-3.7-3-6.7-6.7-6.7c-3.8,0-6.8,3-6.7,6.8C34.1,31,37.1,33.9,40.8,33.9z"/>
	<path class="st0" d="M40.7,2C19.3,2,2,19.3,2,40.7c0,21.4,17.3,38.7,38.7,38.7s38.7-17.3,38.7-38.7C79.4,19.3,62.1,2,40.7,2z
		 M40.9,13.4c7.6,0,13.7,6.2,13.7,13.9c0,7.5-6.2,13.6-13.9,13.6c-7.5,0-13.7-6.3-13.7-13.8C27.1,19.5,33.3,13.4,40.9,13.4z
		 M56.3,46.3c-1.7,1.7-3.7,3-6,3.9c-2.1,0.8-4.5,1.2-6.8,1.5c0.3,0.4,0.5,0.6,0.7,0.8c3.1,3.1,6.3,6.3,9.4,9.4
		c1.1,1.1,1.3,2.4,0.7,3.7c-0.6,1.4-2.1,2.3-3.5,2.2c-0.9-0.1-1.6-0.5-2.2-1.1c-2.4-2.4-4.8-4.7-7.1-7.1c-0.7-0.7-1-0.6-1.6,0
		c-2.4,2.4-4.8,4.9-7.2,7.3c-1.1,1.1-2.4,1.3-3.7,0.7c-1.3-0.7-2.2-2-2.1-3.4c0-0.9,0.5-1.6,1.1-2.3c3.1-3.1,6.2-6.2,9.3-9.3
		c0.2-0.2,0.4-0.4,0.7-0.7c-4.2-0.4-8-1.5-11.3-4c-0.4-0.3-0.8-0.6-1.2-1c-1.4-1.4-1.6-2.9-0.4-4.6c1-1.4,2.6-1.8,4.3-1
		c0.3,0.2,0.6,0.3,0.9,0.6c6.1,4.2,14.4,4.3,20.5,0.2c0.6-0.5,1.3-0.8,2-1c1.5-0.4,2.8,0.2,3.6,1.4C57.4,43.8,57.4,45.2,56.3,46.3z"
		/>
</g>
</svg>
